<svg xmlns="http://www.w3.org/2000/svg" xmlns:xlink="http://www.w3.org/1999/xlink" version="1.1" style="" xml:space="preserve" width="512.011" height="512.011"><rect id="backgroundrect" width="100%" height="100%" x="0" y="0" fill="none" stroke="none"/>
















<g class="currentLayer" style=""><title>Layer 1</title><g id="svg_8">
</g><g id="svg_9">
</g><g id="svg_10">
</g><g id="svg_11">
</g><g id="svg_12">
</g><g id="svg_13">
</g><g id="svg_14">
</g><g id="svg_15">
</g><g id="svg_16">
</g><g id="svg_17">
</g><g id="svg_18">
</g><g id="svg_19">
</g><g id="svg_20">
</g><g id="svg_21">
</g><g id="svg_22">
</g><path fill="#2a6bf7" style="color: rgb(47, 102, 239);" stroke-width="2" stroke-linejoin="round" stroke-dashoffset="" fill-rule="nonzero" marker-start="" marker-mid="" marker-end="" id="svg_36" d="M125.14388275146484,202.16267013549805 L125.14388275146484,294.3937797546387 L177.65975189208984,294.3937797546387 L256.27245330810547,358.95930099487305 L256.3066940307617,137.59708786010742 L177.69454193115234,202.16267013549805 L125.14388275146484,202.16267013549805 zM286.4327926635742,191.53709030151367 C281.87108612060547,187.01057052612305 274.48839569091797,187.01057052612305 269.9262924194336,191.57294845581055 C265.3619918823242,196.13773727416992 265.3619918823242,203.51642990112305 269.9262924194336,208.11668014526367 L269.9262924194336,208.08195114135742 C280.0148239135742,218.17014694213867 286.2197799682617,232.0394401550293 286.2197799682617,247.40351486206055 C286.2197799682617,262.77155685424805 280.0148239135742,276.56830978393555 269.9620590209961,286.6939811706543 C265.3619918823242,291.2210807800293 265.3619918823242,298.5997734069824 269.9262924194336,303.2000541687012 C272.2076950073242,305.4817314147949 275.20250701904297,306.6232109069824 278.1969528198242,306.6232109069824 C281.1919479370117,306.6232109069824 284.18685150146484,305.4817314147949 286.46752166748047,303.2000541687012 C300.7309799194336,288.94001388549805 309.60692596435547,269.1534843444824 309.5714340209961,247.40351486206055 C309.60692596435547,225.62186813354492 300.6931381225586,205.7985954284668 286.4327926635742,191.53709030151367 zM313.2433090209961,164.7629051208496 C308.68013763427734,160.1651268005371 301.2985153198242,160.1651268005371 296.7362594604492,164.7629051208496 C292.17235565185547,169.32741928100586 292.17235565185547,176.70637130737305 296.7362594604492,181.27202987670898 C313.67037200927734,198.20615768432617 324.1179733276367,221.52140426635742 324.1179733276367,247.40351486206055 C324.1179733276367,273.25275802612305 313.67037200927734,296.53205490112305 296.77083587646484,313.5043144226074 C292.2091293334961,318.0669975280762 292.2091293334961,325.4478569030762 296.77083587646484,330.0459403991699 C299.0530319213867,332.2920341491699 302.0471725463867,333.4688529968262 305.0421676635742,333.4688529968262 C308.03743743896484,333.4688529968262 311.03197479248047,332.2920341491699 313.31563568115234,330.0459403991699 C334.4213180541992,308.90473556518555 347.50524139404297,279.6353569030762 347.50524139404297,247.40351486206055 C347.50524139404297,215.14042282104492 334.4213180541992,185.86822128295898 313.2433090209961,164.7629051208496 zM338.6979293823242,139.3072166442871 C334.13610076904297,134.71027755737305 326.75472259521484,134.74491500854492 322.1924057006836,139.3072166442871 C317.62743377685547,143.87260055541992 317.62743377685547,151.25175094604492 322.2269515991211,155.8161277770996 L322.1924057006836,155.8161277770996 C345.65160369873047,179.3105125427246 360.12499237060547,211.57444381713867 360.12499237060547,247.40351486206055 C360.12499237060547,283.1988945007324 345.65160369873047,315.4995536804199 322.2269515991211,338.9592704772949 C317.6647262573242,343.5217399597168 317.6647262573242,350.90351486206055 322.2269515991211,355.50043869018555 C324.5088424682617,357.7466850280762 327.5032272338867,358.8892021179199 330.49742889404297,358.8892021179199 S336.48812103271484,357.7466850280762 338.77010345458984,355.4660758972168 C366.36534881591797,327.8348503112793 383.5126266479492,289.5461845397949 383.47689056396484,247.40351486206055 C383.5126266479492,205.2288932800293 366.36534881591797,166.90374374389648 338.6979293823242,139.3072166442871 z" class="selected"/></g></svg>