<svg xmlns="http://www.w3.org/2000/svg" xmlns:xlink="http://www.w3.org/1999/xlink" version="1.1" style="" xml:space="preserve" width="321" height="326"><rect id="backgroundrect" width="100%" height="100%" x="0" y="0" fill="none" stroke="none" style="" class=""/>
















<g class="currentLayer" style=""><title>Layer 1</title><path fill="#3498db" fill-opacity="1" stroke="none" stroke-opacity="1" stroke-width="1" stroke-dasharray="none" stroke-linejoin="miter" stroke-linecap="butt" stroke-dashoffset="" fill-rule="nonzero" opacity="1" marker-start="" marker-mid="" marker-end="" d="M5.571428298950195,162.4155788421631 C5.571428298950195,80.09514427185059 74.04103469848633,13.415584564208984 158.57143020629883,13.415584564208984 C243.10182571411133,13.415584564208984 311.5714302062988,80.09514427185059 311.5714302062988,162.4155788421631 C311.5714302062988,244.7360134124756 243.10182571411133,311.41559410095215 158.57143020629883,311.41559410095215 C74.04103469848633,311.41559410095215 5.571428298950195,244.7360134124756 5.571428298950195,162.4155788421631 z" id="svg_33" class=""/><g id="svg_1" class="selected">
	<g id="svg_2">
		<path d="M59.21901035308838,234.32022285461426 h119.65899658203125 c25.493000030517578,0 46.231998443603516,-20.73900032043457 46.231998443603516,-46.231998443603516 v-10.105999946594238 l51.3390007019043,51.345001220703125 c1.5609999895095825,1.5609999895095825 3.6500000953674316,2.388000011444092 5.770999908447266,2.388000011444092 c1.0499999523162842,0 2.115999937057495,-0.20100000500679016 3.121999979019165,-0.6200000047683716 c3.0510001182556152,-1.2619999647140503 5.0370001792907715,-4.236999988555908 5.0370001792907715,-7.539000034332275 V92.79022407531738 c0,-3.302000045776367 -1.9850000143051147,-6.2769999504089355 -5.0370001792907715,-7.539000034332275 c-3.0399999618530273,-1.2619999647140503 -6.553999900817871,-0.5659999847412109 -8.892999649047852,1.7680000066757202 l-51.37699890136719,51.382999420166016 c-0.3970000147819519,-25.149999618530273 -20.951000213623047,-45.49800109863281 -46.194000244140625,-45.49800109863281 H59.21901035308838 C33.726014137268066,92.90422248840332 12.987011909484863,113.64322090148926 12.987011909484863,139.1362247467041 v48.95199966430664 C12.987011909484863,213.58122444152832 33.726014137268066,234.32022285461426 59.21901035308838,234.32022285461426 zM274.0620355606079,112.49022102355957 v91.37100219726562 l-45.68299865722656,-45.6879997253418 L274.0620355606079,112.49022102355957 zM29.304009437561035,139.1362247467041 c0,-16.496999740600586 13.423999786376953,-29.915000915527344 29.915000915527344,-29.915000915527344 h119.65899658203125 c16.490999221801758,0 29.915000915527344,13.418000221252441 29.915000915527344,29.915000915527344 v18.465999603271484 v1.1480000019073486 v29.33799934387207 c0,16.496999740600586 -13.423999786376953,29.915000915527344 -29.915000915527344,29.915000915527344 H59.21901035308838 c-16.490999221801758,0 -29.915000915527344,-13.418000221252441 -29.915000915527344,-29.915000915527344 V139.1362247467041 z" fill="#FFFFFF" id="svg_3"/>
	</g>
</g><g id="svg_4">
</g><g id="svg_5">
</g><g id="svg_6">
</g><g id="svg_7">
</g><g id="svg_8">
</g><g id="svg_9">
</g><g id="svg_10">
</g><g id="svg_11">
</g><g id="svg_12">
</g><g id="svg_13">
</g><g id="svg_14">
</g><g id="svg_15">
</g><g id="svg_16">
</g><g id="svg_17">
</g><g id="svg_18">
</g><path fill="" fill-opacity="1" stroke="none" stroke-opacity="1" stroke-width="1" stroke-dasharray="none" stroke-linejoin="miter" stroke-linecap="butt" stroke-dashoffset="" fill-rule="nonzero" opacity="1" marker-start="" marker-mid="" marker-end="" d="M34,33 C34,33 34,33 34,33 C34,33 34,33 34,33 C34,33 34,33 34,33 C34,33 34,33 34,33 Z" id="svg_31"/></g></svg>