<?xml version="1.0" encoding="iso-8859-1"?>
<!-- Generator: Adobe Illustrator 19.0.0, SVG Export Plug-In . SVG Version: 6.00 Build 0)  -->
<svg xmlns="http://www.w3.org/2000/svg" xmlns:xlink="http://www.w3.org/1999/xlink" version="1.1" id="Layer_1" x="0px" y="0px" viewBox="0 0 438.944 438.944" style="enable-background:new 0 0 438.944 438.944;" xml:space="preserve" width="512px" height="512px">
<g>
	<circle cx="263.46" cy="89.785" r="44.138" fill="#006DF0"/>
	<path d="M108.75,167.91C48.689,167.91,0,216.599,0,276.66h217.5C217.5,216.599,168.811,167.91,108.75,167.91z" fill="#006DF0"/>
	<path d="M325.144,192.979c-14.674-17.747-36.857-29.056-61.683-29.056c-19.913,0-38.111,7.292-52.113,19.329   c14.212,15.576,24.508,33.86,30.395,53.649C262.534,212.935,291.965,196.661,325.144,192.979z" fill="#006DF0"/>
	<circle cx="108.75" cy="77.91" r="60" fill="#006DF0"/>
	<path d="M339.515,222.176c-54.826,0-99.429,44.604-99.429,99.429c0,54.826,44.604,99.43,99.429,99.43s99.43-44.604,99.43-99.43   C438.944,266.78,394.34,222.176,339.515,222.176z M401.015,336.606h-46.5v46.5h-30v-46.5h-46.5v-30h46.5v-46.5h30v46.5h46.5   V336.606z" fill="#006DF0"/>
</g>
<g>
</g>
<g>
</g>
<g>
</g>
<g>
</g>
<g>
</g>
<g>
</g>
<g>
</g>
<g>
</g>
<g>
</g>
<g>
</g>
<g>
</g>
<g>
</g>
<g>
</g>
<g>
</g>
<g>
</g>
</svg>
